<svg width="1236" height="906" viewBox="0 0 1236 906" fill="none" xmlns="http://www.w3.org/2000/svg">
<path d="M1188.71 632.229C1204.72 632.229 1236 632.229 1236 632.229V689.173C1236 689.173 1174.89 689.173 1162.52 689.173C1138.52 689.173 1115.24 677.492 1121.79 680.413C1087.59 665.081 1074.5 627.849 1071.59 586.235V109.508H1148.7V228.508V229.238H1222.18V284.722H1148.7V285.452V592.076C1150.16 622.738 1168.34 632.229 1188.71 632.229ZM757.319 588.425V327.065C755.137 179.594 1014.12 178.864 1009.75 330.716V456.285C1009.75 464.316 1003.21 470.156 995.932 470.156H834.432V592.076C835.159 649.75 934.096 649.02 934.096 592.076V533.671H1010.48V588.425C1014.12 739.547 755.137 735.897 757.319 588.425ZM932.641 412.482V327.065C932.641 270.121 834.432 270.121 832.977 327.065V412.482H932.641ZM608.186 319.765C608.186 266.471 517.979 267.931 516.524 321.955V689.173H405.219V632.229H440.866V286.182H398.672V229.968H506.339V271.581C506.339 271.581 519.433 251.869 553.625 232.888C597.274 208.796 640.195 232.888 633.648 229.968C667.839 245.299 680.934 282.532 683.844 324.145V632.959H732.585V689.173H608.913L608.186 319.765ZM303.372 0H358.661V906H303.372V0ZM0.0137167 588.425V327.065C-2.16872 179.594 256.814 178.864 252.449 330.716V375.979H176.791L176.064 327.065C176.064 270.851 78.5814 272.311 76.399 329.255V592.076C77.1265 649.75 176.064 649.02 176.064 592.076V533.671H252.449V588.425C256.814 739.547 -2.16872 735.897 0.0137167 588.425Z" fill="black"/>
</svg>
