<svg width="1955" height="490" viewBox="0 0 1955 490" fill="none" xmlns="http://www.w3.org/2000/svg">
<path d="M1190.36 139.23C1158.92 139.23 1134.23 145.974 1109.52 159.436C1109.52 87.5714 1109.52 22.4505 1111.78 0L961.288 26.9381V40.4136L977.007 42.6573C997.201 47.1449 1003.97 58.3636 1008.42 85.3276C1012.95 139.23 1010.68 426.703 1008.42 473.874C1048.85 482.862 1091.53 489.606 1134.21 489.606C1253.25 489.606 1325.11 415.484 1325.11 298.692C1325.11 206.62 1266.72 139.23 1190.36 139.23V139.23ZM1138.7 464.886C1129.71 464.886 1118.47 464.886 1111.75 462.655C1109.49 431.217 1107.26 298.692 1109.49 181.913C1122.97 177.412 1131.94 175.169 1143.19 175.169C1192.63 175.169 1219.58 233.558 1219.58 305.41C1219.57 395.277 1185.87 464.886 1138.7 464.886V464.886ZM395.29 8.97504H0V29.1818L22.4635 31.4256C51.6453 35.9131 62.8901 53.8761 67.3646 96.5464C74.1218 177.4 71.8651 323.399 67.3646 392.995C62.8771 435.678 51.6583 455.898 22.4635 458.116L0 462.629V480.592H253.791V462.629L226.84 458.116C197.645 455.885 186.413 435.678 181.926 392.995C179.669 363.787 177.425 316.616 177.425 258.24L231.328 260.483C265.023 260.483 280.729 287.434 287.473 325.604H307.693V166.194H287.473C280.716 204.377 265.023 231.315 231.328 231.315L177.438 233.571C177.438 157.206 179.682 85.3406 181.939 42.6703H260.535C321.195 42.6703 352.633 80.8401 375.084 148.231L397.547 141.486L395.29 8.97504V8.97504Z" fill="black"/>
<path d="M523.315 134.742C635.619 134.742 691.765 211.108 691.765 312.168C691.765 408.74 628.875 489.619 516.57 489.619C404.279 489.619 348.133 413.241 348.133 312.168C348.133 215.596 411.01 134.742 523.315 134.742V134.742ZM516.57 157.206C467.156 157.206 453.68 224.584 453.68 312.168C453.68 397.508 476.144 467.13 521.071 467.13C572.69 467.13 586.192 399.752 586.192 312.168C586.192 226.827 563.754 157.206 516.57 157.206ZM1354.3 314.425C1354.3 222.34 1412.69 134.742 1527.23 134.742C1621.54 134.742 1666.48 204.377 1666.48 296.449H1457.6C1455.34 379.545 1495.77 440.192 1576.64 440.192C1612.57 440.192 1630.54 431.23 1653.01 415.497L1661.98 426.716C1639.51 458.155 1590.11 489.619 1527.23 489.619C1426.16 489.606 1354.3 417.741 1354.3 314.425V314.425ZM1457.6 271.754L1563.16 269.498C1563.16 224.584 1556.42 157.206 1518.25 157.206C1480.08 157.206 1459.83 220.083 1457.6 271.754V271.754ZM1933.78 152.718C1906.83 141.474 1870.91 134.742 1830.48 134.742C1747.39 134.742 1695.71 184.144 1695.71 242.547C1695.71 300.949 1733.85 325.643 1787.82 343.619C1843.95 363.813 1859.69 379.545 1859.69 406.496C1859.69 433.448 1839.47 458.142 1803.53 458.142C1760.87 458.142 1729.41 433.448 1704.71 366.057L1688.98 370.57L1691.24 469.387C1718.19 480.605 1767.59 489.606 1810.27 489.606C1897.87 489.606 1954.03 444.666 1954.03 375.058C1954.03 327.887 1929.31 300.949 1870.92 278.473C1808.01 253.778 1785.58 238.059 1785.58 208.851C1785.58 179.656 1805.82 159.437 1832.77 159.437C1873.17 159.437 1900.13 184.144 1920.37 244.79L1936.08 240.303L1933.78 152.718V152.718ZM983.726 143.73C945.556 121.293 878.166 132.499 842.239 213.365L844.47 134.755L694.009 163.95V177.426L709.728 179.669C729.961 181.926 738.923 193.145 741.18 222.353C745.667 276.255 743.423 370.596 741.18 417.754C738.923 444.679 729.961 458.155 709.728 460.412L694.009 462.668V480.631H902.873V462.668L875.922 460.412C853.471 458.155 846.727 444.679 844.47 417.754C839.983 375.071 839.983 289.73 842.239 235.828C853.458 220.096 902.873 206.633 947.787 235.828L983.726 143.73V143.73Z" fill="black"/>
</svg>
