<svg id="Layer_1" data-name="Layer 1" xmlns="http://www.w3.org/2000/svg" viewBox="0 0 547 83"><defs><style>.cls-1{fill:#fff;fill-rule:evenodd;}</style></defs><path class="cls-1" d="M129,20.6c6.3,0,11.2,2.4,14.8,7.4s5.4,11.6,5.4,20.1c0,8.8-1.8,15.6-5.5,20.4s-8.7,7.2-15,7.2-11.1-2.2-14.7-6.8h-1l-1.9,4.7a1.85,1.85,0,0,1-1.7,1.1h-8a1.79,1.79,0,0,1-1.8-1.8V2.6A1.79,1.79,0,0,1,101.4.8h10.8A1.79,1.79,0,0,1,114,2.6V18q0,3.3-.6,10.5h.6C117.3,23.3,122.4,20.6,129,20.6Zm-4.6,11.7c-3.5,0-6.2,1.1-7.9,3.3S114,41.5,114,46.5v1.6c0,5.7.8,9.8,2.5,12.2s4.4,3.7,8.1,3.7a8.07,8.07,0,0,0,7.1-4.2c1.7-2.7,2.6-6.8,2.6-11.9s-.9-9.1-2.6-11.7A8.52,8.52,0,0,0,124.4,32.3ZM173,74.8H162.2a1.79,1.79,0,0,1-1.8-1.8V23.5a1.79,1.79,0,0,1,1.8-1.8H173a1.79,1.79,0,0,1,1.8,1.8V72.9A1.88,1.88,0,0,1,173,74.8Zm39.5-10.7a30.19,30.19,0,0,0,7.6-1.2,1.2,1.2,0,0,1,1.5,1.2v8.3a1.23,1.23,0,0,1-.7,1.1,33.36,33.36,0,0,1-12.5,2.1c-5.8,0-10-1.4-12.6-4.4s-4-7.3-4-13.1V32.6h-5.7a1.16,1.16,0,0,1-1.2-1.2V26.7c0-.1.1-.2.1-.3l7.9-4.7,3.9-10.4a1.17,1.17,0,0,1,1.1-.8h7.2a1.16,1.16,0,0,1,1.2,1.2V21.8h14.3a.65.65,0,0,1,.6.6v9a1.16,1.16,0,0,1-1.2,1.2H206.4V58a5.66,5.66,0,0,0,1.7,4.5A5.82,5.82,0,0,0,212.5,64.1Zm67.3,10.7a3.45,3.45,0,0,1-3.1-2.2L266.1,40.3c-.7-2.3-1.6-5.8-2.8-10.3H263l-1,3.6-2.1,6.8L249,72.7a3,3,0,0,1-3,2.1,3.09,3.09,0,0,1-3-2.3L229.7,26a2.33,2.33,0,0,1,2.3-2.9h.3a2.34,2.34,0,0,1,2.2,1.7l7.8,28.3c1.9,7.4,3.2,12.8,3.8,16.4h.3c1.8-7.4,3.2-12.3,4.1-14.8l10.1-29.6a3,3,0,0,1,2.9-2,2.91,2.91,0,0,1,2.8,2l9.4,29.4c2.3,7.5,3.7,12.3,4.2,14.8h.3c.3-2,1.5-7.6,3.8-16.6l7.5-27.9a2.34,2.34,0,0,1,2.2-1.7,2.28,2.28,0,0,1,2.2,2.9L283.3,72.5a3.12,3.12,0,0,1-3.1,2.3Zm59.4,0a1.83,1.83,0,0,1-1.8-1.6l-.9-6.6H336a24.69,24.69,0,0,1-8,7.1,21,21,0,0,1-9.7,2c-5.1,0-9-1.3-11.8-3.9a13,13,0,0,1-4.1-9.3,14.43,14.43,0,0,1,6-13.1c4.3-2.8,10.3-4.5,18.4-4.5l9.8-.3V41.2c0-5-1-8.6-3.1-11.1s-5.2-3.7-9.6-3.7a29.33,29.33,0,0,0-12.8,3.1,2.2,2.2,0,0,1-2.9-1.1,2.06,2.06,0,0,1,1.1-2.8,39.78,39.78,0,0,1,14.9-3.1c5.7,0,9.9,1.5,12.8,4.5s4.2,7.6,4.2,13.7V73.2A2.3,2.3,0,0,1,339.2,74.8Zm-20.7-3.4c5.6,0,9.9-1.6,13-4.7s4.8-7.6,4.8-13.1v-5l-9,.4c-7.3.3-12.4,1.5-15.6,3.4s-4.7,5-4.7,9a10.09,10.09,0,0,0,2.9,7.6A14.85,14.85,0,0,0,318.5,71.4Zm59.2-49.3a39.56,39.56,0,0,1,4.7.3,2.26,2.26,0,0,1,1.9,2.6,2.19,2.19,0,0,1-2.6,1.7,34.19,34.19,0,0,0-4.5-.4,13,13,0,0,0-10.8,5.6c-2.8,3.7-4.2,8.5-4.2,14.1V72.2a2.3,2.3,0,0,1-4.6,0v-47a2,2,0,0,1,2-2,1.92,1.92,0,0,1,2,1.9l.4,7.4h.3c2.1-3.8,4.4-6.5,6.8-8A14.77,14.77,0,0,1,377.7,22.1Zm35.2,0a22.38,22.38,0,0,1,9.7,2,18,18,0,0,1,7.3,7h.3c-.2-4.1-.3-7.9-.3-11.7V3.1a2.3,2.3,0,0,1,4.6,0V73a1.58,1.58,0,0,1-1.6,1.6,1.62,1.62,0,0,1-1.6-1.5l-1-6.5h-.4c-3.9,5.9-9.6,8.8-16.9,8.8s-12.5-2.2-16.4-6.7c-3.7-4.5-5.7-10.9-5.7-19.4,0-8.9,1.8-15.7,5.6-20.5C400.3,24.5,405.7,22.1,412.9,22.1Zm0,4.3c-5.7,0-9.9,2-12.8,6s-4.2,9.6-4.2,17.2q0,21.9,17.1,21.9c5.9,0,10.1-1.7,12.8-5.1s4.1-9,4.1-16.8v-.8c0-8-1.3-13.7-4.1-17.1C423.2,28.1,418.9,26.4,412.9,26.4Zm59.9,49.3c-7.5,0-13.3-2.3-17.6-7s-6.3-11.1-6.3-19.4,2-14.9,6.1-19.8,9.5-7.5,16.4-7.5c6,0,10.9,2.1,14.3,6.3,3.6,4.2,5.3,10,5.3,17.3v3.8H453.8c.1,7.1,1.7,12.5,5,16.3s7.9,5.5,14,5.5a45,45,0,0,0,7.8-.6,40.43,40.43,0,0,0,5.8-1.6,2,2,0,0,1,2.7,1.9,2.05,2.05,0,0,1-1.3,1.9,34.12,34.12,0,0,1-6.8,2A30.33,30.33,0,0,1,472.8,75.7Zm-1.4-49.4c-5,0-9,1.6-12,4.9s-4.7,8-5.3,14.1h32c0-5.9-1.3-10.7-3.9-14A13,13,0,0,0,471.4,26.3Zm72.4,48.5a2.26,2.26,0,0,1-2.3-2.3V41.2c0-5.2-1.1-9-3.2-11.3-2.3-2.3-5.6-3.6-10.2-3.6-6.2,0-10.7,1.5-13.5,4.7s-4.4,8.2-4.4,15.1V72.3a2.3,2.3,0,0,1-4.6,0V25.2a2.05,2.05,0,0,1,2.1-2.1,2.15,2.15,0,0,1,2.1,1.8l.6,5.2h.3c3.4-5.4,9.3-8.1,17.9-8.1,11.7,0,17.6,6.3,17.6,18.9V72.3A2.6,2.6,0,0,1,543.8,74.8ZM167.7,0a8.29,8.29,0,0,0-8.5,8.1v.8a8.51,8.51,0,0,0,17,0V8.2A8.37,8.37,0,0,0,167.7,0ZM67.4,1.8A3.25,3.25,0,0,0,65,.8H3.4A3.1,3.1,0,0,0,1,1.8,3.41,3.41,0,0,0,0,4.2v41a24.58,24.58,0,0,0,1.8,9.1,32.33,32.33,0,0,0,4.4,8,44.2,44.2,0,0,0,6.3,6.8,58.68,58.68,0,0,0,6.8,5.5c2,1.4,4.3,2.8,6.5,4.1s3.8,2.2,4.7,2.6,1.7.8,2.2,1.1a3.42,3.42,0,0,0,2.8,0,21.66,21.66,0,0,0,2.3-1.1c.9-.5,2.5-1.3,4.7-2.6S46.9,76,49,74.6a68.56,68.56,0,0,0,6.8-5.5,49.81,49.81,0,0,0,6.3-6.8,36,36,0,0,0,4.4-8,24.58,24.58,0,0,0,1.8-9.1V4.2A2.93,2.93,0,0,0,67.4,1.8ZM59.5,45.6c0,14.9-25.3,27.7-25.3,27.7V9.6H59.5Z"/></svg>