<svg width="100" height="100" viewBox="0 0 100 100" fill="none" xmlns="http://www.w3.org/2000/svg">
<path d="M89.2765 41.7842C87.8565 34.768 84.5365 28.2628 79.6665 22.9649C74.7965 17.6669 68.564 13.7737 61.629 11.6975C54.694 9.62376 47.3215 9.44601 40.294 11.1865C33.2665 12.9269 26.849 16.5165 21.724 21.5774C16.6015 26.6359 12.964 32.9732 11.2015 39.9153C9.43899 46.8574 9.61899 54.1378 11.719 60.9836C13.819 67.8319 17.7615 73.9865 23.129 78.7957C28.4965 83.6048 35.0815 86.8833 42.1865 88.2855C48.649 89.5841 55.339 89.2804 61.654 87.4017C67.969 85.523 73.7165 82.1309 78.379 77.5267C83.0415 72.9225 86.479 67.2468 88.379 61.0108C90.2815 54.7747 90.589 48.1683 89.274 41.7866L89.2765 41.7842ZM29.1365 21.8268C35.164 17.3658 42.494 14.9587 50.0265 14.9637C50.4565 14.9637 50.8665 15.0377 51.2965 15.0575C52.8515 15.5018 51.6665 16.7708 51.6665 16.7708C46.344 19.4963 41.8665 23.5919 38.7015 28.6208C37.2015 31.0105 36.0115 30.9858 35.6265 30.9414C33.4215 30.8476 30.7115 27.8209 28.6565 24.7448C28.3515 24.2881 28.2315 23.7351 28.319 23.1945C28.4065 22.6538 28.699 22.165 29.1365 21.8268V21.8268ZM39.6365 81.1854C39.3365 81.4891 38.9515 81.6989 38.529 81.7878C38.1065 81.8767 37.669 81.8372 37.2715 81.6792C30.9315 79.2252 25.4515 74.9962 21.5065 69.5156C17.5615 64.035 15.3165 57.5348 15.0515 50.8148L16.5265 48.672C21.2815 46.9192 25.9665 45.9712 27.2315 47.0525C27.8165 47.5462 27.4165 49.0768 27.2315 49.7088C23.6565 61.149 32.9015 64.0868 36.3915 65.1978C36.7765 65.3212 37.1065 65.4298 37.3915 65.5237C41.0465 66.916 43.1315 68.9355 43.5965 71.5178C43.684 73.315 43.3765 75.1098 42.6965 76.7762C42.0165 78.4426 40.979 79.9486 39.6565 81.1854H39.6365V81.1854ZM74.5815 74.0063C68.0715 80.4448 59.2415 84.0714 50.0265 84.0887C48.4965 84.0788 46.9665 83.9652 45.4515 83.748C45.1565 83.7011 44.879 83.585 44.6415 83.4048C44.404 83.2246 44.2165 82.9925 44.094 82.7234C43.9715 82.4543 43.919 82.1606 43.9415 81.8668C43.964 81.573 44.059 81.2891 44.219 81.0422C46.4265 78.1464 47.419 74.5223 46.994 70.9203C46.5215 68.8663 45.489 66.9778 44.009 65.4595C42.529 63.9412 40.659 62.85 38.599 62.3044C38.289 62.1859 37.889 62.0526 37.429 61.9094C32.649 60.3887 28.184 58.2754 30.524 50.7309C31.624 47.2055 30.564 45.3638 29.484 44.4405C27.184 42.4655 22.769 43.063 18.709 44.2529C18.3365 44.3517 17.9465 44.3541 17.574 44.2578C17.2015 44.1616 16.8615 43.9715 16.5865 43.7073C16.3115 43.4432 16.109 43.1099 16.004 42.747C15.899 42.3841 15.889 41.9965 15.979 41.6262C17.2015 36.4665 19.6115 31.6573 23.024 27.5691C23.239 27.3222 23.509 27.1272 23.8115 26.9988C24.114 26.8704 24.444 26.8112 24.7715 26.826C25.1015 26.8408 25.4215 26.9297 25.7115 27.0852C26.0015 27.2408 26.2515 27.4605 26.4415 27.7271C28.6765 30.8476 31.9165 34.2693 35.4415 34.4223H35.6915C36.959 34.3557 38.184 33.9508 39.234 33.2497C40.284 32.5486 41.124 31.5783 41.6615 30.4427C45.629 24.4708 51.454 19.9357 58.2615 17.5213C59.7465 17.067 61.3315 17.0399 62.8315 17.4423C67.4715 19.242 71.6665 21.9996 75.1415 25.5299C75.4215 25.8163 75.619 26.1718 75.709 26.5594C75.799 26.947 75.7815 27.3518 75.6565 27.7296C75.5315 28.1073 75.304 28.4455 74.999 28.7072C74.694 28.9689 74.324 29.1417 73.9265 29.2083C67.5065 30.3094 59.2065 32.477 58.1315 36.4319C57.6315 38.3477 58.5865 40.2091 61.0315 41.9668C70.4515 48.7164 73.2165 53.9008 71.7765 56.0437C70.449 57.7249 69.5515 59.6974 69.1565 61.7909C68.7615 63.8844 68.879 66.0446 69.5015 68.0862C70.424 69.7255 71.9215 70.9747 73.7115 71.6017C73.7115 71.6017 75.4865 72.609 74.5965 74.0063H74.5765H74.5815ZM80.0265 67.0642C79.564 67.6246 78.974 68.0714 78.304 68.3677C77.634 68.6639 76.904 68.7997 76.1715 68.7676C75.454 68.654 74.7665 68.3948 74.154 68.0072C73.5415 67.6196 73.019 67.1086 72.6165 66.5112C71.4315 64.2547 72.9965 60.5022 74.6965 57.9693C76.4615 55.3277 77.3115 49.378 63.0865 39.1821C61.8915 38.3279 61.4315 37.6268 61.5115 37.3404C62.0115 35.5185 69.7315 33.1633 78.5115 32.0425C78.9565 31.9857 79.4065 32.0622 79.809 32.2597C80.2115 32.4572 80.5415 32.7683 80.7615 33.1534C83.6615 38.3723 85.119 44.2529 84.9915 50.2051C84.864 56.1572 83.1515 61.9711 80.0265 67.0642V67.0642Z" fill="#BAC0CE"/>
</svg>
