<svg width="58" height="75" fill="none" xmlns="http://www.w3.org/2000/svg"><path d="M39.569 74H13.007a7 7 0 0 1-7-7V31.077a7 7 0 0 1 7-7h19.101a7 7 0 0 1 4.988 2.088l7.46 7.576a7 7 0 0 1 2.013 4.912V67a7 7 0 0 1-7 7Z" fill="#175DDC" stroke="#fff" stroke-width="2"/><path d="M44.576 69.055H18.015a7 7 0 0 1-7-7V26.132a7 7 0 0 1 7-7h19.1a7 7 0 0 1 4.988 2.088l7.46 7.576a7 7 0 0 1 2.013 4.911v28.348a7 7 0 0 1-7 7Z" fill="#175DDC" stroke="#fff" stroke-width="2"/><path d="M50 63.698H23.439a7 7 0 0 1-7-7V20.775a7 7 0 0 1 7-7h19.1a7 7 0 0 1 4.988 2.088l7.46 7.575A7 7 0 0 1 57 28.35v28.348a7 7 0 0 1-7 7Z" fill="#175DDC" stroke="#fff" stroke-width="2"/><path d="M44.648 13.599v3.95a8 8 0 0 0 8 8h4.518" stroke="#fff" stroke-width="2"/><path stroke="#fff" stroke-width="2" stroke-linecap="round" d="M23.533 37.736H49.49M23.533 46.802H49.49M23.533 42.269H49.49M23.533 55.456H49.49M23.533 50.923H49.49"/><path d="M1 16.483C1 7.944 8.013 1 16.69 1c8.678 0 15.691 6.944 15.691 15.483 0 8.54-7.013 15.484-15.69 15.484C8.012 31.967 1 25.023 1 16.484Z" fill="#518FFF" stroke="#fff" stroke-width="2"/><path d="m16.562 7.979.1 11.538" stroke="#fff" stroke-width="2" stroke-linecap="round"/><ellipse rx="1.252" ry="1.236" transform="rotate(-.479 2802.219 -1964.476) skewX(.012)" fill="#fff"/></svg>