<svg width="101" height="77" fill="none" xmlns="http://www.w3.org/2000/svg"><path fill-rule="evenodd" clip-rule="evenodd" d="M32.374 50.192a26.42 26.42 0 0 0 9.111 1.608c14.34 0 25.965-11.372 25.965-25.4 0-.337-.007-.673-.02-1.008h25.299v34.85H32.374v-10.05Z" fill="#518FFF"/><path d="M15.805 26.4c0 14.028 11.625 25.4 25.965 25.4s25.964-11.372 25.964-25.4C67.734 12.372 56.11 1 41.77 1 27.43 1 15.805 12.372 15.805 26.4Z" stroke="#fff" stroke-width="2" stroke-linecap="round" stroke-linejoin="round"/><path d="M27.914 47.849a1 1 0 0 0-2 0h2Zm68.288-26.792a2.12 2.12 0 0 1 2.14 2.11h2c0-2.253-1.83-4.11-4.14-4.11v2Zm2.14 2.11v40.552h2V23.167h-2Zm0 40.552c0 1.172-.958 2.11-2.14 2.11v2c2.25 0 4.14-1.798 4.14-4.11h-2Zm-2.14 2.11H30.054v2h66.148v-2Zm-66.148 0a2.12 2.12 0 0 1-2.14-2.11h-2a4.12 4.12 0 0 0 4.14 4.11v-2Zm-2.14-2.11V47.85h-2v15.87h2Zm39.254-42.662h29.034v-2H67.168v2Z" fill="#fff"/><path d="M67.203 25.56h25.64v34.85H32.487V50.011" stroke="#fff" stroke-width="2" stroke-linejoin="round"/><path d="M47.343 76h31.571" stroke="#fff" stroke-width="2" stroke-linecap="round" stroke-linejoin="round"/><path d="M57.557 66.83V76M67.771 66.83V76" stroke="#fff" stroke-width="2" stroke-linejoin="round"/><path d="m20.995 42.873-3.972 3.972-14.61 14.61a3.413 3.413 0 0 0 0 4.826v0a3.413 3.413 0 0 0 4.827 0l14.61-14.61 3.972-3.972" stroke="#fff" stroke-width="2" stroke-linecap="round" stroke-linejoin="round"/><path d="M86.037 32.488H71.845M86.037 37.81H76.28M71.845 37.81h-6.652M86.037 43.132h-6.209M74.95 43.132H61.2M86.037 48.454H71.845M66.967 48.454h-7.54M86.037 53.776H66.08M61.201 53.776h-11.53M44.793 53.776h-7.096" stroke="#fff" stroke-width="2" stroke-linecap="round"/><rect width="40.801" height="9.757" rx="4" transform="matrix(-1 0 0 1 61.201 14.748)" stroke="#fff" stroke-width="2"/><path d="M16.852 33.375h28.375a4 4 0 0 1 4 4v1.757a4 4 0 0 1-4 4H22.174M66.523 33.375h-3.539a4 4 0 0 0-4 4v3.761c0 1.102.894 1.996 1.996 1.996v0" stroke="#fff" stroke-width="2" stroke-linecap="round"/></svg>