<svg width="102" height="102" fill="none" xmlns="http://www.w3.org/2000/svg"><path d="M57.983 15.06a35.664 35.664 0 0 1 14.531 6.27c16.164 11.78 19.585 34.613 7.643 51a37.227 37.227 0 0 1-6.81 7.138m-32.842 6.697a35.708 35.708 0 0 1-11.239-5.495c-16.163-11.78-19.585-34.613-7.642-51a37.55 37.55 0 0 1 3.295-3.929" stroke="#fff" stroke-width="2" stroke-linecap="round" stroke-linejoin="round"/><path d="M93.909 64.598H7.72c-.708 0-1.275-.662-1.275-1.49V40.273c0-.828.567-1.49 1.275-1.49H93.91c.708 0 1.275.663 1.275 1.49v22.837c.047.827-.567 1.49-1.275 1.49Z" fill="#518FFF" stroke="#fff" stroke-width="2" stroke-linecap="round" stroke-linejoin="round"/><path d="M21.532 52.186v-5.965M21.532 52.187l5.748-1.844M21.532 52.186l3.524 4.881M21.531 52.186l-3.47 4.881M21.532 52.187l-5.694-1.844M40.944 52.186v-5.965M40.944 52.187l5.694-1.844M40.944 52.187l3.525 4.88M40.944 52.187l-3.525 4.88M40.944 52.187l-5.694-1.844M54.849 57.337h11.294M74.21 57.337h11.295" stroke="#fff" stroke-width="2" stroke-linecap="round" stroke-linejoin="round"/></svg>