<svg width="78" height="78" fill="none" xmlns="http://www.w3.org/2000/svg"><path d="M66.493 64.415V77H9.979V64.324M9.979 44.065V32.106h56.514v12.148" stroke="#fff" stroke-width="2" stroke-linejoin="round"/><path d="M75.44 64.852H2.085c-.603 0-1.085-.555-1.085-1.25V44.448c0-.694.482-1.25 1.085-1.25H75.44c.603 0 1.085.556 1.085 1.25v19.156c.04.694-.482 1.25-1.085 1.25Z" fill="#518FFF" stroke="#fff" stroke-width="2" stroke-linecap="round" stroke-linejoin="round"/><path d="M13.84 54.56v-5.077M13.84 54.56l4.893-1.57M13.84 54.56l3 4.153M13.84 54.56l-2.954 4.153M13.84 54.56l-4.846-1.57M30.363 54.56v-5.077M30.363 54.56l4.846-1.57M30.363 54.56l3 4.153M30.363 54.56l-3 4.153M30.363 54.56l-4.846-1.57M42.197 59.042h9.506M58.57 59.042h9.507" stroke="#fff" stroke-width="2" stroke-linecap="round" stroke-linejoin="round"/><path d="M20.863 31.364c-.274-5.285 0-15.817 1.093-18.863 1.276-3.554 6.233-10.826 15.856-11.482 4.83-.273 15.2 2.296 18.043 14.763" stroke="#fff" stroke-width="2"/></svg>