<svg xmlns="http://www.w3.org/2000/svg" viewBox="0 0 128 128" stroke="none">
	<path fill-rule="evenodd" d="
		M17,32
		A41,41,0,0,1,57,0
		H87
		A41,41,0,0,1,128,41
		V87
		A41,41,0,0,1,87,128
		H57
		A41,41,0,0,1,17,96
		H8
		A8,8,0,0,1,0,88
		V80
		A8,8,0,0,1,8,72
		H16
		V56
		H8
		A8,8,0,0,1,0,48
		V40
		A8,8,0,0,1,8,32
		Z
		M79,56
		a17,17,0,0,1,0,16
		l17,17
		c5,5,-2,12,-7,7
		l-17,-17
		a17,17,0,0,1,-16,0
		l-17,17
		c-5,5,-12,-2,-7,-7
		l17,-17
		a17,17,0,0,1,0,-16
		l-17,-17
		c-5,-5,2,-12,7,-7
		l17,17
		a17,17,0,0,1,16,0
		l17,-17
		c5,-5,12,2,7,7
		z
		M64,55
		a9,9,0,0,0,0,18
		a9,9,0,0,0,0,-18
		M112,50
		a4,4,0,0,1,8,0
		V78
		a4,4,0,0,1,-8,0
		z"
	/>
</svg>