<svg width="223" height="231" viewBox="0 0 223 231" fill="none" xmlns="http://www.w3.org/2000/svg">
<rect width="222.535" height="230.092" fill="none"/>
<path d="M140.356 85.6618C140.136 85.43 139.871 85.2457 139.577 85.1198C139.283 84.9938 138.968 84.93 138.648 84.9318H94.8482C94.5289 84.93 94.2113 84.9938 93.9175 85.1198C93.6237 85.2457 93.359 85.43 93.14 85.6618C92.9083 85.8808 92.7239 86.1472 92.598 86.4411C92.4721 86.7349 92.4082 87.0506 92.41 87.37V116.57C92.4192 118.793 92.8499 120.994 93.6802 123.056C94.4705 125.091 95.5326 127.011 96.8375 128.761C98.1789 130.515 99.6808 132.137 101.323 133.612C102.847 135.01 104.453 136.318 106.13 137.528C107.59 138.565 109.123 139.547 110.729 140.474C112.335 141.401 113.469 142.027 114.131 142.354C114.799 142.682 115.339 142.941 115.741 143.113C116.055 143.264 116.4 143.339 116.748 143.332C117.091 143.337 117.431 143.257 117.737 143.102C118.146 142.923 118.679 142.671 119.354 142.343C120.03 142.014 121.179 141.386 122.756 140.463C124.333 139.539 125.884 138.554 127.355 137.517C129.034 136.306 130.642 134.999 132.169 133.601C133.814 132.128 135.316 130.504 136.655 128.75C137.958 126.998 139.021 125.08 139.813 123.045C140.645 120.983 141.075 118.782 141.083 116.559V87.359C141.085 87.0415 141.021 86.7276 140.895 86.4356C140.769 86.1436 140.586 85.8808 140.356 85.6618ZM134.71 116.836C134.71 127.421 116.748 136.514 116.748 136.514V91.1879H134.71V116.836Z" [attr.fill]="lineColor"/>
<path d="M73 163.392C73 168.149 61.9288 166.263 57.0282 166.263C52.1277 166.263 32.7746 161.096 31 153.058C33.9618 151.004 26.2676 143.298 42.2394 142.723C43.4201 141.759 55.1755 148.712 57.0282 149.039C61.9288 149.039 73 158.636 73 163.392Z" fill="none"/>
<path d="M31.6216 122.3C31.7144 123.4 32.6819 124.217 33.7825 124.125C34.8832 124.032 35.7002 123.064 35.6075 121.964L31.6216 122.3ZM158.501 45.7445C159.57 45.4679 160.213 44.3768 159.936 43.3074L155.429 25.8809C155.152 24.8115 154.061 24.1689 152.992 24.4455C151.922 24.722 151.28 25.8132 151.556 26.8825L155.563 42.3728L140.073 46.3793C139.003 46.6559 138.361 47.7471 138.637 48.8164C138.914 49.8858 140.005 50.5285 141.074 50.2519L158.501 45.7445ZM35.6075 121.964C33.6788 99.0875 41.4658 75.5544 58.9661 58.0541L56.1377 55.2256C37.7695 73.5938 29.5982 98.2999 31.6216 122.3L35.6075 121.964ZM58.9661 58.0541C85.5404 31.4798 126.036 27.3026 156.985 45.5315L159.015 42.085C126.534 22.9534 84.0327 27.3307 56.1377 55.2256L58.9661 58.0541Z" [attr.fill]="lineColor"/>
<path d="M74.4748 185.062C73.409 185.352 72.7801 186.451 73.0702 187.517L77.797 204.885C78.0871 205.951 79.1863 206.58 80.2521 206.289C81.3179 205.999 81.9467 204.9 81.6567 203.834L77.455 188.396L92.8934 184.194C93.9592 183.904 94.5881 182.805 94.298 181.739C94.008 180.673 92.9088 180.045 91.843 180.335L74.4748 185.062ZM199.478 100.283C199.286 99.1951 198.248 98.4697 197.16 98.6624C196.072 98.8551 195.347 99.8931 195.54 100.981L199.478 100.283ZM173.138 172.225C146.813 198.55 106.827 202.897 75.9932 185.255L74.0068 188.727C106.367 207.242 148.333 202.687 175.966 175.054L173.138 172.225ZM195.54 100.981C199.985 126.07 192.516 152.847 173.138 172.225L175.966 175.054C196.307 154.713 204.142 126.603 199.478 100.283L195.54 100.981Z" [attr.fill]="lineColor"/>
<path d="M44.726 108.132C46.283 92.1931 53.1655 76.6765 65.3734 64.4686C82.2893 47.5527 105.558 40.8618 127.5 44.3959" stroke="#2F343D" stroke-width="2" stroke-linecap="round"/>
<path d="M187.595 119.132C186.653 136.119 179.694 152.834 166.717 165.811C151.44 181.088 130.982 188.025 111 186.623" stroke="#2F343D" stroke-width="2" stroke-linecap="round"/>
<rect x="160.5" y="56.1317" width="49" height="34" rx="2.5" [attr.fill]="fillColor" stroke="#2F343D" stroke-width="3"/>
<path d="M160.5 63.6317V63.6317C160.5 66.9454 163.186 69.6317 166.5 69.6317H179.509M209.5 63.6317V63.6317C209.5 66.9454 206.814 69.6317 203.5 69.6317H190.491" stroke="#2F343D" stroke-width="3"/>
<mask id="path-9-inside-1_870_25839" [attr.fill]="bgColor">
<rect x="179" y="65.6317" width="12" height="9" rx="1.25"/>
</mask>
<rect x="179" y="65.6317" width="12" height="9" rx="1.25" stroke="#2F343D" stroke-width="6" mask="url(#path-9-inside-1_870_25839)"/>
<path d="M194 54.6317C194 54.6317 194 53.6317 194 52.6317C194 51.6317 193.053 50.6317 192.105 50.6317C191.158 50.6317 178.842 50.6317 177.895 50.6317C176.947 50.6317 176 51.6317 176 52.6317C176 53.6317 176 54.6317 176 54.6317" stroke="#2F343D" stroke-width="3"/>
<circle cx="59" cy="142.632" r="10.5" [attr.fill]="fillColor" stroke="#2F343D" stroke-width="3"/>
<path d="M75.9935 170.132H75.9126H75.8318H75.7512H75.6708H75.5905H75.5104H75.4304H75.3506H75.2709H75.1914H75.1121H75.0329H74.9538H74.8749H74.7962H74.7176H74.6392H74.5609H74.4828H74.4048H74.3269H74.2492H74.1717H74.0943H74.017H73.9399H73.8629H73.7861H73.7094H73.6329H73.5565H73.4802H73.4041H73.3281H73.2523H73.1766H73.101H73.0256H72.9503H72.8751H72.8001H72.7252H72.6504H72.5758H72.5013H72.4269H72.3527H72.2786H72.2046H72.1308H72.0571H71.9835H71.91H71.8367H71.7635H71.6904H71.6175H71.5446H71.4719H71.3993H71.3269H71.2545H71.1823H71.1102H71.0382H70.9664H70.8946H70.823H70.7515H70.6801H70.6088H70.5376H70.4666H70.3956H70.3248H70.2541H70.1835H70.113H70.0426H69.9724H69.9022H69.8322H69.7622H69.6924H69.6226H69.553H69.4835H69.4141H69.3448H69.2756H69.2065H69.1375H69.0686H68.9998H68.9311H68.8625H68.794H68.7256H68.6572H68.589H68.5209H68.4529H68.385H68.3172H68.2494H68.1818H68.1142H68.0468H67.9794H67.9121H67.8449H67.7779H67.7108H67.6439H67.5771H67.5103H67.4437H67.3771H67.3106H67.2442H67.1779H67.1117H67.0455H66.9794H66.9134H66.8475H66.7817H66.7159H66.6502H66.5846H66.5191H66.4537H66.3883H66.323H66.2578H66.1926H66.1275H66.0625H65.9976H65.9328H65.868H65.8032H65.7386H65.674H65.6095H65.5451H65.4807H65.4164H65.3521H65.2879H65.2238H65.1598H65.0958H65.0318H64.968H64.9042H64.8404H64.7767H64.7131H64.6495H64.586H64.5226H64.4592H64.3958H64.3325H64.2693H64.2061H64.143H64.0799H64.0169H63.9539H63.891H63.8281H63.7653H63.7025H63.6398H63.5771H63.5145H63.4519H63.3894H63.3269H63.2645H63.202H63.1397H63.0774H63.0151H62.9528H62.8907H62.8285H62.7664H62.7043H62.6423H62.5803H62.5183H62.4564H62.3945H62.3326H62.2708H62.209H62.1472H62.0855H62.0238H61.9621H61.9005H61.8389H61.7773H61.7157H61.6542H61.5927H61.5312H61.4698H61.4084H61.347H61.2856H61.2243H61.1629H61.1016H61.0404H60.9791H60.9178H60.8566H60.7954H60.7342H60.6731H60.6119H60.5508H60.4896H60.4285H60.3674H60.3064H60.2453H60.1842H60.1232H60.0622H60.0011H59.9401H59.8791H59.8181H59.7571H59.6962H59.6352H59.5742H59.5133H59.4523H59.3913H59.3304H59.2694H59.2085H59.1475H59.0866H59.0257H58.9647H58.9038H58.8428H58.7819H58.7209H58.6599H58.599H58.538H58.477H58.416H58.3551H58.2941H58.2331H58.172H58.111H58.05H57.9889H57.9279H57.8668H57.8057H57.7446H57.6835H57.6224H57.5612H57.5001H57.4389H57.3777H57.3165H57.2553H57.194H57.1328H57.0715H57.0102H56.9489H56.8875H56.8261H56.7647H56.7033H56.6418H56.5804H56.5189H56.4573H56.3958H56.3342H56.2726H56.2109H56.1493H56.0876H56.0258H55.9641H55.9023H55.8404H55.7786H55.7166H55.6547H55.5927H55.5307H55.4687H55.4066H55.3445H55.2823H55.2201H55.1578H55.0956H55.0332H54.9709H54.9084H54.846H54.7835H54.7209H54.6583H54.5957H54.533H54.4703H54.4075H54.3447H54.2818H54.2189H54.1559H54.0929H54.0298H53.9666H53.9034H53.8402H53.7769H53.7135H53.6501H53.5867H53.5231H53.4596H53.3959H53.3322H53.2685H53.2046H53.1408H53.0768H53.0128H52.9487H52.8846H52.8204H52.7562H52.6918H52.6274H52.563H52.4985H52.4339H52.3692H52.3045H52.2397H52.1748H52.1098H52.0448H51.9797H51.9146H51.8493H51.784H51.7186H51.6532H51.5876H51.522H51.4563H51.3905H51.3247H51.2588H51.1928H51.1267H51.0605H50.9942H50.9279H50.8615H50.795H50.7284H50.6617H50.5949H50.5281H50.4611H50.3941H50.327H50.2598H50.1925H50.1251H50.0576H49.9901H49.9224H49.8547H49.7868H49.7189H49.6508H49.5827H49.5145H49.4461H49.3777H49.3092H49.2406H49.1719H49.103H49.0341H48.9651H48.896H48.8267H48.7574H48.688H48.6184H48.5488H48.479H48.4092H48.3392H48.2691H48.199H48.1287H48.0583H47.9878H47.9171H47.8464H47.7755H47.7046H47.6335H47.5623H47.491H47.4196H47.3481H47.2764H47.2046H47.1328H47.0607H46.9886H46.9164H46.844H46.7715H46.6989H46.6262H46.5533H46.4803H46.4072H46.334H46.2606H46.1872H46.1135H46.0398H45.9659H45.8919H45.8178H45.7436H45.6692H45.5947H45.52H45.4452H45.3703H45.2952H45.2201H45.1447H45.0693H44.9937H44.9179H44.8421H44.7661H44.6899H44.6136H44.5372H44.4606H44.3839H44.3071H44.2301H44.1529H44.0756H43.9982H43.9206H43.8429H43.765H43.687H43.6088H43.5305H43.452H43.3734H43.2946H43.2157H43.1367H43.0574H42.978H42.8985H42.8188H42.739H42.659H42.5788H42.4985H42.418H42.3374H42.2566H42.1757H42.0946H42.0133H41.9318H41.8503H41.7685H41.6866H41.6045H41.5222H41.4398H41.3572H41.2745H41.1915C41.0489 170.132 40.9693 170.098 40.9164 170.064C40.8553 170.026 40.7779 169.954 40.702 169.823C40.5361 169.538 40.4608 169.112 40.5197 168.743C41.9235 159.954 49.6474 153.205 58.9925 153.205C68.3375 153.205 76.0615 159.954 77.4652 168.743C77.5751 169.431 77.4037 169.686 77.3124 169.781C77.1888 169.909 76.8364 170.132 75.9935 170.132Z" [attr.fill]="fillColor" stroke="#2F343D" stroke-width="3"/>
<circle cx="31" cy="142.632" r="10.5" [attr.fill]="fillColor" stroke="#2F343D" stroke-width="3"/>
<path d="M47.9935 170.132H47.9126H47.8318H47.7512H47.6708H47.5905H47.5104H47.4304H47.3506H47.2709H47.1914H47.1121H47.0329H46.9538H46.8749H46.7962H46.7176H46.6392H46.5609H46.4828H46.4048H46.3269H46.2492H46.1717H46.0943H46.017H45.9399H45.8629H45.7861H45.7094H45.6329H45.5565H45.4802H45.4041H45.3281H45.2523H45.1766H45.101H45.0256H44.9503H44.8751H44.8001H44.7252H44.6504H44.5758H44.5013H44.4269H44.3527H44.2786H44.2046H44.1308H44.0571H43.9835H43.91H43.8367H43.7635H43.6904H43.6175H43.5446H43.4719H43.3993H43.3269H43.2545H43.1823H43.1102H43.0382H42.9664H42.8946H42.823H42.7515H42.6801H42.6088H42.5376H42.4666H42.3956H42.3248H42.2541H42.1835H42.113H42.0426H41.9724H41.9022H41.8322H41.7622H41.6924H41.6226H41.553H41.4835H41.4141H41.3448H41.2756H41.2065H41.1375H41.0686H40.9998H40.9311H40.8625H40.794H40.7256H40.6572H40.589H40.5209H40.4529H40.385H40.3172H40.2494H40.1818H40.1142H40.0468H39.9794H39.9121H39.8449H39.7779H39.7108H39.6439H39.5771H39.5103H39.4437H39.3771H39.3106H39.2442H39.1779H39.1117H39.0455H38.9794H38.9134H38.8475H38.7817H38.7159H38.6502H38.5846H38.5191H38.4537H38.3883H38.323H38.2578H38.1926H38.1275H38.0625H37.9976H37.9328H37.868H37.8032H37.7386H37.674H37.6095H37.5451H37.4807H37.4164H37.3521H37.2879H37.2238H37.1598H37.0958H37.0318H36.968H36.9042H36.8404H36.7767H36.7131H36.6495H36.586H36.5226H36.4592H36.3958H36.3325H36.2693H36.2061H36.143H36.0799H36.0169H35.9539H35.891H35.8281H35.7653H35.7025H35.6398H35.5771H35.5145H35.4519H35.3894H35.3269H35.2645H35.202H35.1397H35.0774H35.0151H34.9528H34.8907H34.8285H34.7664H34.7043H34.6423H34.5803H34.5183H34.4564H34.3945H34.3326H34.2708H34.209H34.1472H34.0855H34.0238H33.9621H33.9005H33.8389H33.7773H33.7157H33.6542H33.5927H33.5312H33.4698H33.4084H33.347H33.2856H33.2243H33.1629H33.1016H33.0404H32.9791H32.9178H32.8566H32.7954H32.7342H32.6731H32.6119H32.5508H32.4896H32.4285H32.3674H32.3064H32.2453H32.1842H32.1232H32.0622H32.0011H31.9401H31.8791H31.8181H31.7571H31.6962H31.6352H31.5742H31.5133H31.4523H31.3913H31.3304H31.2694H31.2085H31.1475H31.0866H31.0257H30.9647H30.9038H30.8428H30.7819H30.7209H30.6599H30.599H30.538H30.477H30.416H30.3551H30.2941H30.2331H30.172H30.111H30.05H29.9889H29.9279H29.8668H29.8057H29.7446H29.6835H29.6224H29.5612H29.5001H29.4389H29.3777H29.3165H29.2553H29.194H29.1328H29.0715H29.0102H28.9489H28.8875H28.8261H28.7647H28.7033H28.6418H28.5804H28.5189H28.4573H28.3958H28.3342H28.2726H28.2109H28.1493H28.0876H28.0258H27.9641H27.9023H27.8404H27.7786H27.7166H27.6547H27.5927H27.5307H27.4687H27.4066H27.3445H27.2823H27.2201H27.1578H27.0956H27.0332H26.9709H26.9084H26.846H26.7835H26.7209H26.6583H26.5957H26.533H26.4703H26.4075H26.3447H26.2818H26.2189H26.1559H26.0929H26.0298H25.9666H25.9034H25.8402H25.7769H25.7135H25.6501H25.5867H25.5231H25.4596H25.3959H25.3322H25.2685H25.2046H25.1408H25.0768H25.0128H24.9487H24.8846H24.8204H24.7562H24.6918H24.6274H24.563H24.4985H24.4339H24.3692H24.3045H24.2397H24.1748H24.1098H24.0448H23.9797H23.9146H23.8493H23.784H23.7186H23.6532H23.5876H23.522H23.4563H23.3905H23.3247H23.2588H23.1928H23.1267H23.0605H22.9942H22.9279H22.8615H22.795H22.7284H22.6617H22.5949H22.5281H22.4611H22.3941H22.327H22.2598H22.1925H22.1251H22.0576H21.9901H21.9224H21.8547H21.7868H21.7189H21.6508H21.5827H21.5145H21.4461H21.3777H21.3092H21.2406H21.1719H21.103H21.0341H20.9651H20.896H20.8267H20.7574H20.688H20.6184H20.5488H20.479H20.4092H20.3392H20.2691H20.199H20.1287H20.0583H19.9878H19.9171H19.8464H19.7755H19.7046H19.6335H19.5623H19.491H19.4196H19.3481H19.2764H19.2046H19.1328H19.0607H18.9886H18.9164H18.844H18.7715H18.6989H18.6262H18.5533H18.4803H18.4072H18.334H18.2606H18.1872H18.1135H18.0398H17.9659H17.8919H17.8178H17.7436H17.6692H17.5947H17.52H17.4452H17.3703H17.2952H17.2201H17.1447H17.0693H16.9937H16.9179H16.8421H16.7661H16.6899H16.6136H16.5372H16.4606H16.3839H16.3071H16.2301H16.1529H16.0756H15.9982H15.9206H15.8429H15.765H15.687H15.6088H15.5305H15.452H15.3734H15.2946H15.2157H15.1367H15.0574H14.978H14.8985H14.8188H14.739H14.659H14.5788H14.4985H14.418H14.3374H14.2566H14.1757H14.0946H14.0133H13.9318H13.8503H13.7685H13.6866H13.6045H13.5222H13.4398H13.3572H13.2745H13.1915C13.0489 170.132 12.9693 170.098 12.9164 170.064C12.8553 170.026 12.7779 169.954 12.702 169.823C12.5361 169.538 12.4608 169.112 12.5197 168.743C13.9235 159.954 21.6474 153.205 30.9925 153.205C40.3375 153.205 48.0615 159.954 49.4652 168.743C49.5751 169.431 49.4037 169.686 49.3124 169.781C49.1888 169.91 48.8364 170.132 47.9935 170.132Z" [attr.fill]="fillColor" stroke="#2F343D" stroke-width="3"/>
<circle cx="45" cy="155.632" r="10.5" [attr.fill]="fillColor" stroke="#2F343D" stroke-width="3"/>
<path d="M61.9935 183.132H61.9126H61.8318H61.7512H61.6708H61.5905H61.5104H61.4304H61.3506H61.2709H61.1914H61.1121H61.0329H60.9538H60.8749H60.7962H60.7176H60.6392H60.5609H60.4828H60.4048H60.3269H60.2492H60.1717H60.0943H60.017H59.9399H59.8629H59.7861H59.7094H59.6329H59.5565H59.4802H59.4041H59.3281H59.2523H59.1766H59.101H59.0256H58.9503H58.8751H58.8001H58.7252H58.6504H58.5758H58.5013H58.4269H58.3527H58.2786H58.2046H58.1308H58.0571H57.9835H57.91H57.8367H57.7635H57.6904H57.6175H57.5446H57.4719H57.3993H57.3269H57.2545H57.1823H57.1102H57.0382H56.9664H56.8946H56.823H56.7515H56.6801H56.6088H56.5376H56.4666H56.3956H56.3248H56.2541H56.1835H56.113H56.0426H55.9724H55.9022H55.8322H55.7622H55.6924H55.6226H55.553H55.4835H55.4141H55.3448H55.2756H55.2065H55.1375H55.0686H54.9998H54.9311H54.8625H54.794H54.7256H54.6572H54.589H54.5209H54.4529H54.385H54.3172H54.2494H54.1818H54.1142H54.0468H53.9794H53.9121H53.8449H53.7779H53.7108H53.6439H53.5771H53.5103H53.4437H53.3771H53.3106H53.2442H53.1779H53.1117H53.0455H52.9794H52.9134H52.8475H52.7817H52.7159H52.6502H52.5846H52.5191H52.4537H52.3883H52.323H52.2578H52.1926H52.1275H52.0625H51.9976H51.9328H51.868H51.8032H51.7386H51.674H51.6095H51.5451H51.4807H51.4164H51.3521H51.2879H51.2238H51.1598H51.0958H51.0318H50.968H50.9042H50.8404H50.7767H50.7131H50.6495H50.586H50.5226H50.4592H50.3958H50.3325H50.2693H50.2061H50.143H50.0799H50.0169H49.9539H49.891H49.8281H49.7653H49.7025H49.6398H49.5771H49.5145H49.4519H49.3894H49.3269H49.2645H49.202H49.1397H49.0774H49.0151H48.9528H48.8907H48.8285H48.7664H48.7043H48.6423H48.5803H48.5183H48.4564H48.3945H48.3326H48.2708H48.209H48.1472H48.0855H48.0238H47.9621H47.9005H47.8389H47.7773H47.7157H47.6542H47.5927H47.5312H47.4698H47.4084H47.347H47.2856H47.2243H47.1629H47.1016H47.0404H46.9791H46.9178H46.8566H46.7954H46.7342H46.6731H46.6119H46.5508H46.4896H46.4285H46.3674H46.3064H46.2453H46.1842H46.1232H46.0622H46.0011H45.9401H45.8791H45.8181H45.7571H45.6962H45.6352H45.5742H45.5133H45.4523H45.3913H45.3304H45.2694H45.2085H45.1475H45.0866H45.0257H44.9647H44.9038H44.8428H44.7819H44.7209H44.6599H44.599H44.538H44.477H44.416H44.3551H44.2941H44.2331H44.172H44.111H44.05H43.9889H43.9279H43.8668H43.8057H43.7446H43.6835H43.6224H43.5612H43.5001H43.4389H43.3777H43.3165H43.2553H43.194H43.1328H43.0715H43.0102H42.9489H42.8875H42.8261H42.7647H42.7033H42.6418H42.5804H42.5189H42.4573H42.3958H42.3342H42.2726H42.2109H42.1493H42.0876H42.0258H41.9641H41.9023H41.8404H41.7786H41.7166H41.6547H41.5927H41.5307H41.4687H41.4066H41.3445H41.2823H41.2201H41.1578H41.0956H41.0332H40.9709H40.9084H40.846H40.7835H40.7209H40.6583H40.5957H40.533H40.4703H40.4075H40.3447H40.2818H40.2189H40.1559H40.0929H40.0298H39.9666H39.9034H39.8402H39.7769H39.7135H39.6501H39.5867H39.5231H39.4596H39.3959H39.3322H39.2685H39.2046H39.1408H39.0768H39.0128H38.9487H38.8846H38.8204H38.7562H38.6918H38.6274H38.563H38.4985H38.4339H38.3692H38.3045H38.2397H38.1748H38.1098H38.0448H37.9797H37.9146H37.8493H37.784H37.7186H37.6532H37.5876H37.522H37.4563H37.3905H37.3247H37.2588H37.1928H37.1267H37.0605H36.9942H36.9279H36.8615H36.795H36.7284H36.6617H36.5949H36.5281H36.4611H36.3941H36.327H36.2598H36.1925H36.1251H36.0576H35.9901H35.9224H35.8547H35.7868H35.7189H35.6508H35.5827H35.5145H35.4461H35.3777H35.3092H35.2406H35.1719H35.103H35.0341H34.9651H34.896H34.8267H34.7574H34.688H34.6184H34.5488H34.479H34.4092H34.3392H34.2691H34.199H34.1287H34.0583H33.9878H33.9171H33.8464H33.7755H33.7046H33.6335H33.5623H33.491H33.4196H33.3481H33.2764H33.2046H33.1328H33.0607H32.9886H32.9164H32.844H32.7715H32.6989H32.6262H32.5533H32.4803H32.4072H32.334H32.2606H32.1872H32.1135H32.0398H31.9659H31.8919H31.8178H31.7436H31.6692H31.5947H31.52H31.4452H31.3703H31.2952H31.2201H31.1447H31.0693H30.9937H30.9179H30.8421H30.7661H30.6899H30.6136H30.5372H30.4606H30.3839H30.3071H30.2301H30.1529H30.0756H29.9982H29.9206H29.8429H29.765H29.687H29.6088H29.5305H29.452H29.3734H29.2946H29.2157H29.1367H29.0574H28.978H28.8985H28.8188H28.739H28.659H28.5788H28.4985H28.418H28.3374H28.2566H28.1757H28.0946H28.0133H27.9318H27.8503H27.7685H27.6866H27.6045H27.5222H27.4398H27.3572H27.2745H27.1915C27.045 183.132 26.9628 183.097 26.9092 183.064C26.8479 183.026 26.772 182.955 26.6978 182.829C26.5354 182.553 26.4617 182.141 26.5193 181.785C27.9196 173.127 35.6325 166.455 44.9925 166.455C54.3524 166.455 62.0654 173.127 63.4657 181.785C63.574 182.454 63.4052 182.695 63.319 182.784C63.1962 182.91 62.8413 183.132 61.9935 183.132Z" [attr.fill]="fillColor" stroke="#2F343D" stroke-width="3"/>
</svg>
